<svg width="215" height="73" viewBox="0 0 215 73" fill="none" xmlns="http://www.w3.org/2000/svg">
<path d="M50.536 30.436L47.026 43H44.056L41.698 34.054L39.232 43L36.28 43.018L32.896 30.436H35.596L37.81 40.192L40.366 30.436H43.174L45.586 40.138L47.818 30.436H50.536ZM54.7015 32.47V35.62H58.9315V37.618H54.7015V40.948H59.4715V43H52.1815V30.418H59.4715V32.47H54.7015ZM68.8895 36.556C69.5975 36.688 70.1795 37.042 70.6355 37.618C71.0915 38.194 71.3195 38.854 71.3195 39.598C71.3195 40.27 71.1515 40.864 70.8155 41.38C70.4915 41.884 70.0175 42.28 69.3935 42.568C68.7695 42.856 68.0315 43 67.1795 43H61.7615V30.436H66.9455C67.7975 30.436 68.5295 30.574 69.1415 30.85C69.7655 31.126 70.2335 31.51 70.5455 32.002C70.8695 32.494 71.0315 33.052 71.0315 33.676C71.0315 34.408 70.8335 35.02 70.4375 35.512C70.0535 36.004 69.5375 36.352 68.8895 36.556ZM64.2815 35.62H66.5855C67.1855 35.62 67.6475 35.488 67.9715 35.224C68.2955 34.948 68.4575 34.558 68.4575 34.054C68.4575 33.55 68.2955 33.16 67.9715 32.884C67.6475 32.608 67.1855 32.47 66.5855 32.47H64.2815V35.62ZM66.8195 40.948C67.4315 40.948 67.9055 40.804 68.2415 40.516C68.5895 40.228 68.7635 39.82 68.7635 39.292C68.7635 38.752 68.5835 38.332 68.2235 38.032C67.8635 37.72 67.3775 37.564 66.7655 37.564H64.2815V40.948H66.8195ZM77.6659 43.126C76.7899 43.126 75.9979 42.976 75.2899 42.676C74.5939 42.376 74.0419 41.944 73.6339 41.38C73.2259 40.816 73.0159 40.15 73.0039 39.382H75.7039C75.7399 39.898 75.9199 40.306 76.2439 40.606C76.5799 40.906 77.0359 41.056 77.6119 41.056C78.1999 41.056 78.6619 40.918 78.9979 40.642C79.3339 40.354 79.5019 39.982 79.5019 39.526C79.5019 39.154 79.3879 38.848 79.1599 38.608C78.9319 38.368 78.6439 38.182 78.2959 38.05C77.9599 37.906 77.4919 37.75 76.8919 37.582C76.0759 37.342 75.4099 37.108 74.8939 36.88C74.3899 36.64 73.9519 36.286 73.5799 35.818C73.2199 35.338 73.0399 34.702 73.0399 33.91C73.0399 33.166 73.2259 32.518 73.5979 31.966C73.9699 31.414 74.4919 30.994 75.1639 30.706C75.8359 30.406 76.6039 30.256 77.4679 30.256C78.7639 30.256 79.8139 30.574 80.6179 31.21C81.4339 31.834 81.8839 32.71 81.9679 33.838H79.1959C79.1719 33.406 78.9859 33.052 78.6379 32.776C78.3019 32.488 77.8519 32.344 77.2879 32.344C76.7959 32.344 76.3999 32.47 76.0999 32.722C75.8119 32.974 75.6679 33.34 75.6679 33.82C75.6679 34.156 75.7759 34.438 75.9919 34.666C76.2199 34.882 76.4959 35.062 76.8199 35.206C77.1559 35.338 77.6239 35.494 78.2239 35.674C79.0399 35.914 79.7059 36.154 80.2219 36.394C80.7379 36.634 81.1819 36.994 81.5539 37.474C81.9259 37.954 82.1119 38.584 82.1119 39.364C82.1119 40.036 81.9379 40.66 81.5899 41.236C81.2419 41.812 80.7319 42.274 80.0599 42.622C79.3879 42.958 78.5899 43.126 77.6659 43.126ZM86.8167 30.436V43H84.2967V30.436H86.8167ZM97.8565 30.436V32.47H94.5085V43H91.9885V32.47H88.6405V30.436H97.8565ZM102.215 32.47V35.62H106.445V37.618H102.215V40.948H106.985V43H99.6951V30.418H106.985V32.47H102.215ZM116.084 41.002H120.224V43H113.564V30.436H116.084V41.002ZM127.658 43.126C126.482 43.126 125.402 42.85 124.418 42.298C123.434 41.746 122.654 40.984 122.078 40.012C121.502 39.028 121.214 37.918 121.214 36.682C121.214 35.458 121.502 34.36 122.078 33.388C122.654 32.404 123.434 31.636 124.418 31.084C125.402 30.532 126.482 30.256 127.658 30.256C128.846 30.256 129.926 30.532 130.898 31.084C131.882 31.636 132.656 32.404 133.22 33.388C133.796 34.36 134.084 35.458 134.084 36.682C134.084 37.918 133.796 39.028 133.22 40.012C132.656 40.984 131.882 41.746 130.898 42.298C129.914 42.85 128.834 43.126 127.658 43.126ZM127.658 40.876C128.414 40.876 129.08 40.708 129.656 40.372C130.232 40.024 130.682 39.532 131.006 38.896C131.33 38.26 131.492 37.522 131.492 36.682C131.492 35.842 131.33 35.11 131.006 34.486C130.682 33.85 130.232 33.364 129.656 33.028C129.08 32.692 128.414 32.524 127.658 32.524C126.902 32.524 126.23 32.692 125.642 33.028C125.066 33.364 124.616 33.85 124.292 34.486C123.968 35.11 123.806 35.842 123.806 36.682C123.806 37.522 123.968 38.26 124.292 38.896C124.616 39.532 125.066 40.024 125.642 40.372C126.23 40.708 126.902 40.876 127.658 40.876ZM144.707 34.216C144.419 33.688 144.023 33.286 143.519 33.01C143.015 32.734 142.427 32.596 141.755 32.596C141.011 32.596 140.351 32.764 139.775 33.1C139.199 33.436 138.749 33.916 138.425 34.54C138.101 35.164 137.939 35.884 137.939 36.7C137.939 37.54 138.101 38.272 138.425 38.896C138.761 39.52 139.223 40 139.811 40.336C140.399 40.672 141.083 40.84 141.863 40.84C142.823 40.84 143.609 40.588 144.221 40.084C144.833 39.568 145.235 38.854 145.427 37.942H141.107V36.016H147.911V38.212C147.743 39.088 147.383 39.898 146.831 40.642C146.279 41.386 145.565 41.986 144.689 42.442C143.825 42.886 142.853 43.108 141.773 43.108C140.561 43.108 139.463 42.838 138.479 42.298C137.507 41.746 136.739 40.984 136.175 40.012C135.623 39.04 135.347 37.936 135.347 36.7C135.347 35.464 135.623 34.36 136.175 33.388C136.739 32.404 137.507 31.642 138.479 31.102C139.463 30.55 140.555 30.274 141.755 30.274C143.171 30.274 144.401 30.622 145.445 31.318C146.489 32.002 147.209 32.968 147.605 34.216H144.707Z" fill="black"/>
<rect x="160" y="29.5" width="14" height="14" rx="7" stroke="black"/>
<rect x="168" y="29.5" width="14" height="14" rx="7" stroke="black"/>
</svg>
